<?xml version="1.0" encoding="utf-8"?>
<!-- Generator: Adobe Illustrator 24.0.0, SVG Export Plug-In . SVG Version: 6.00 Build 0)  -->
<svg version="1.1" id="Layer_1" xmlns="http://www.w3.org/2000/svg" xmlns:xlink="http://www.w3.org/1999/xlink" x="0px" y="0px"
	 viewBox="0 0 50 50" style="enable-background:new 0 0 50 50;" xml:space="preserve">
<style type="text/css">
	.st0{fill:#E0E0E0;}
</style>
<g>
	<path class="st0" d="M38.53,31.42V8.65c0-1.97,1.63-3.6,3.6-3.6s3.6,1.63,3.6,3.6c0,0.75,0.61,1.36,1.36,1.36s1.36-0.61,1.36-1.36
		c0-3.47-2.86-6.32-6.32-6.32c-3.47,0-6.32,2.86-6.32,6.32v8.43h-11.9V7.9c0-1.97,1.63-3.6,3.6-3.6c1.97,0,3.6,1.63,3.6,3.6
		c0,0.75,0.61,1.36,1.36,1.36c0.75,0,1.36-0.61,1.36-1.36c0-3.47-2.86-6.32-6.32-6.32s-6.32,2.86-6.32,6.32v22.03
		C9.43,30.61,0.46,34.48,0.46,39.11c0,5.17,10.94,9.31,24.54,9.31c13.53,0,24.54-4.15,24.54-9.31
		C49.47,35.91,45.12,33.06,38.53,31.42z M35.81,19.87v4.01h-11.9v-4.01H35.81z M23.91,26.6h11.9v4.01h-1.09
		c-2.99-0.48-6.32-0.75-9.79-0.75c-0.34,0-0.68,0-1.02,0V26.6z"/>
</g>
</svg>
