<?xml version="1.0" encoding="utf-8"?>
<!-- Generator: Adobe Illustrator 24.0.0, SVG Export Plug-In . SVG Version: 6.00 Build 0)  -->
<svg version="1.1" id="Layer_1" xmlns="http://www.w3.org/2000/svg" xmlns:xlink="http://www.w3.org/1999/xlink" x="0px" y="0px"
	 viewBox="0 0 50 50" style="enable-background:new 0 0 50 50;" xml:space="preserve">
<style type="text/css">
	.st0{fill:#E0E0E0;}
</style>
<g>
	<g>
		<g>
			
				<rect x="14.75" y="21.39" transform="matrix(0.7071 -0.7071 0.7071 0.7071 -10.3557 24.9995)" class="st0" width="20.5" height="7.22"/>
			<path class="st0" d="M2.16,43.14c-0.32,0.32-0.32,0.85,0,1.18l3.2,3.2c0.32,0.33,0.85,0.32,1.18,0l1.27-1.27l-4.38-4.38
				L2.16,43.14z"/>
			<polygon class="st0" points="2.39,29.15 14.17,40.93 18.67,45.44 18.67,45.44 20.85,47.61 25.52,42.93 7.06,24.48 			"/>
			
				<rect x="6.63" y="31.68" transform="matrix(0.7071 -0.7071 0.7071 0.7071 -26.6586 18.2473)" class="st0" width="4.14" height="19.26"/>
			<path class="st0" d="M47.52,6.54c0.32-0.32,0.32-0.85,0-1.18l-3.2-3.2C44.17,2,43.96,1.92,43.73,1.92
				c-0.22,0-0.43,0.09-0.59,0.24l-1.27,1.27l4.38,4.38L47.52,6.54z"/>
			
				<rect x="32.74" y="0.9" transform="matrix(0.7071 -0.7071 0.7071 0.7071 0.6885 29.5742)" class="st0" width="6.61" height="26.1"/>
			
				<rect x="39.23" y="-0.93" transform="matrix(0.7071 -0.7071 0.7071 0.7071 5.9477 31.7526)" class="st0" width="4.14" height="19.26"/>
		</g>
	</g>
</g>
</svg>
