<?xml version="1.0" encoding="utf-8"?>
<!-- Generator: Adobe Illustrator 24.1.0, SVG Export Plug-In . SVG Version: 6.00 Build 0)  -->
<svg version="1.1" id="Layer_1" xmlns="http://www.w3.org/2000/svg" xmlns:xlink="http://www.w3.org/1999/xlink" x="0px" y="0px"
	 viewBox="0 0 50 50" style="enable-background:new 0 0 50 50;" xml:space="preserve">
<style type="text/css">
	.st0{fill:#E0E0E0;}
</style>
<g>
	<g>
		<path class="st0" d="M23,22.7c1.7,0,3.1-1.4,3.1-3.1c0-1.7-1.4-3.1-3.1-3.1c-1.7,0-3.1,1.4-3.1,3.1C19.9,21.3,21.3,22.7,23,22.7z"
			/>
		<path class="st0" d="M26.9,31.2c-0.2,0-0.5-0.1-0.7-0.2l-3.8-1.9c-0.1,0-0.2-0.1-0.3-0.2l0.5,3.5l-0.3,2.9l-1.4,3.5
			c-0.3,0.7,0.1,1.6,0.8,1.8c0.2,0.1,0.4,0.1,0.5,0.1c0.6,0,1.1-0.3,1.3-0.9l1.5-3.7c0-0.1,0.1-0.3,0.1-0.4c0,0,0.3-3.3,0.3-3.4
			l0.6,0.1c0,0,0.7,3.3,0.7,3.3v3.6c0,0.8,0.6,1.4,1.4,1.4c0.8,0,1.4-0.6,1.4-1.4v-0.3L26.9,31.2C26.9,31.2,26.9,31.2,26.9,31.2z"/>
		<path class="st0" d="M31,38.7l-2.8-8.2c0.4-0.1,0.7-0.4,0.8-0.8l1.1-4.1c0.1-0.4,0-0.8-0.3-1.1l-2-2.1c-0.3-0.3-0.7-0.4-1-0.3v0
			l-0.1,0c0,0,0,0,0,0l-5.3,1.3c-0.1,0-0.1,0-0.2,0l0,0l0,0c0,0,0,0-0.1,0c-0.6,0.3-0.8,0.9-0.6,1.5l1.4,3.2
			c0.1,0.3,0.3,0.5,0.5,0.6l3.8,1.9c0.2,0.1,0.3,0.1,0.5,0.1c0.1,0,0.2,0,0.3-0.1l2.9,8.5c-0.2,0.2-0.2,0.4-0.2,0.7
			c0.1,0.4,0.8,0.6,1.4,0.4c0.6-0.2,0.5-0.4,0.3-0.9C31.6,39.1,31.5,38.6,31,38.7z M27,28.4l-3.1-1.5l-0.6-1.4l0.4-0.1l0.5,1.1
			l2.5,1.2l0.6-2l-1-1l0.5-0.1l1,1.1L27,28.4z"/>
		<path class="st0" d="M33.4,38.6c-0.6,0-1.1,0.5-1.1,1.1c0,0.6,0.5,1.1,1.1,1.1c0.6,0,1.1-0.5,1.1-1.1
			C34.6,39.1,34.1,38.6,33.4,38.6z"/>
	</g>
	<g>
		<path class="st0" d="M42,21.4L25.6,7.7c-0.2-0.2-0.5-0.3-0.8-0.3c-0.3,0-0.6,0.1-0.8,0.3L7.7,21.3c-0.3,0.2-0.4,0.6-0.4,0.9v18.6
			h2.5v-18l15-12.6L40,23v17.9h2.5V22.4C42.4,22,42.3,21.7,42,21.4z M23.6,0.4L0.7,19.6c-0.8,0.7-0.9,1.9-0.2,2.7
			c0.7,0.8,1.9,0.9,2.7,0.2L24.8,4.4l21.7,18.1c0.8,0.7,2,0.6,2.7-0.2c0.7-0.8,0.6-2-0.2-2.7L26,0.4C25.7,0.1,25.2,0,24.8,0
			C24.3,0,23.9,0.1,23.6,0.4z"/>
	</g>
</g>
</svg>
