<?xml version="1.0" encoding="utf-8"?>
<!-- Generator: Adobe Illustrator 24.0.0, SVG Export Plug-In . SVG Version: 6.00 Build 0)  -->
<svg version="1.1" id="Layer_1" xmlns="http://www.w3.org/2000/svg" xmlns:xlink="http://www.w3.org/1999/xlink" x="0px" y="0px"
	 viewBox="0 0 50 50" style="enable-background:new 0 0 50 50;" xml:space="preserve">
<style type="text/css">
	.st0{fill:#E0E0E0;}
</style>
<g transform="translate(0,-1020.3622)">
	<path class="st0" d="M12.75,1020.93c-1.15-0.02-2.28,0.07-3.37,0.28c-2.17,0.42-4.13,1.33-5.67,2.87
		c-3.08,3.08-3.64,7.88-2.78,12.53s3.12,9.26,6.07,12.21c2.96,2.96,7.17,4.8,11.4,5.19c1.03,0.1,2.06,0.1,3.08,0.02l1.99,0.27
		c3.18,0.42,6.3,1.24,9.28,2.43l3.54,1.41l-0.57,0.57c-0.34,0.34-0.34,0.89,0,1.23l9.6,9.6c0.34,0.34,0.89,0.34,1.23,0l0,0
		l2.62-2.62c0.34-0.34,0.34-0.89,0-1.23l-9.6-9.6c-0.16-0.16-0.38-0.25-0.61-0.26c-0.23,0-0.46,0.09-0.63,0.26l-0.56,0.56
		l-1.14-2.87c-1.37-3.42-2.24-7.01-2.59-10.68l-0.37-3.92c0-0.04-0.01-0.08-0.02-0.13c0-0.1,0-0.2-0.02-0.29
		c-0.4-4.23-2.23-8.44-5.19-11.4c-2.96-2.96-7.56-5.22-12.21-6.07C15.08,1021.08,13.9,1020.95,12.75,1020.93L12.75,1020.93z
		 M12.43,1035.52c2.17,0,3.93,1.76,3.93,3.93l0,0c0,2.17-1.76,3.93-3.93,3.93l0,0c-2.17,0-3.93-1.76-3.93-3.93l0,0
		C8.5,1037.28,10.26,1035.52,12.43,1035.52L12.43,1035.52z M32.69,1046.09c0.48,2.85,1.26,5.65,2.33,8.34l0.63,1.58l-2.25-0.9
		c-2.39-0.96-4.86-1.68-7.38-2.16c1.45-0.61,2.79-1.47,3.94-2.62C31.18,1049.1,32.07,1047.65,32.69,1046.09L32.69,1046.09z"/>
</g>
</svg>
