<svg xmlns="http://www.w3.org/2000/svg" viewBox="0 0 107.87 107.83"><defs><style>.cls-1{fill:#fff;}</style></defs><title>Asset 1</title><g id="Layer_2" data-name="Layer 2"><g id="Layer_1-2" data-name="Layer 1"><path class="cls-1" d="M73.64,44.44l-.07-.16a1.9,1.9,0,0,0-.11-.26l-.12-.17a1.71,1.71,0,0,0-.16-.2L73,43.51l-.18-.15-18-10.79a1.8,1.8,0,0,0-1.85,0L35,43.36l-.19.15-.17.13-.15.2L34.4,44a1.89,1.89,0,0,0-.11.26l-.07.17a1.73,1.73,0,0,0-.06.47v18A1.8,1.8,0,0,0,35,64.42L53,75.21h0a1.74,1.74,0,0,0,.29.12l.12.05a1.77,1.77,0,0,0,.93,0l.12-.05a1.74,1.74,0,0,0,.29-.12h0l18-10.79a1.8,1.8,0,0,0,.87-1.54v-18A1.76,1.76,0,0,0,73.64,44.44ZM53.93,36.21l5.49,3.3L44.94,48.2l-5.49-3.3Zm-1.8,34.28L37.75,61.86V48.08l14.38,8.63Zm1.8-16.9-5.49-3.3,14.48-8.69,5.49,3.3Zm16.18,8.27L55.73,70.49V56.71l14.38-8.63Z"/><path class="cls-1" d="M55.37.68a1.86,1.86,0,0,0-2.88,0L47.1,7.87,50,10l2.16-2.88V21.53h3.6V7.15L57.89,10l2.88-2.16Z"/><path class="cls-1" d="M57.89,97.76l-2.16,2.88V86.25h-3.6v14.38L50,97.76,47.1,99.91l5.39,7.19a1.8,1.8,0,0,0,2.88,0l5.39-7.19Z"/><rect class="cls-1" x="52.13" y="25.13" width="3.6" height="3.6"/><rect class="cls-1" x="52.13" y="79.06" width="3.6" height="3.6"/><path class="cls-1" d="M21.57,52.09H7.19l2.88-2.16L7.91,47.06.72,52.45a1.8,1.8,0,0,0,0,2.88l7.19,5.39,2.16-2.88L7.19,55.69H21.57Z"/><path class="cls-1" d="M107.51,52.81a1.8,1.8,0,0,0-.36-.36L100,47.06,97.8,49.94l2.88,2.16H86.29v3.6h14.38L97.8,57.85,100,60.72l7.19-5.39A1.8,1.8,0,0,0,107.51,52.81Z"/><rect class="cls-1" x="25.17" y="52.09" width="3.6" height="3.6"/><rect class="cls-1" x="79.1" y="52.09" width="3.6" height="3.6"/><path class="cls-1" d="M32.32,29.74,22.15,19.57l3.56.51.51-3.56-8.9-1.28a1.8,1.8,0,0,0-2,2l1.27,8.9,3.56-.51-.51-3.56L29.77,32.28Z"/><path class="cls-1" d="M92.58,90.5l-1.27-8.9-3.56.51.51,3.56L78.09,75.51,75.54,78,85.71,88.22l-3.55-.51-.51,3.56,8.9,1.27.26,0a1.8,1.8,0,0,0,1.8-1.8A1.77,1.77,0,0,0,92.58,90.5Z"/><rect class="cls-1" x="33.07" y="33.03" width="3.6" height="3.6" transform="translate(-14.41 34.85) rotate(-45)"/><rect class="cls-1" x="71.2" y="71.16" width="3.6" height="3.6" transform="translate(-30.21 72.99) rotate(-45)"/><path class="cls-1" d="M22.15,88.21,32.31,78,29.78,75.5,19.61,85.67l.51-3.56-3.56-.51-1.28,8.9a1.8,1.8,0,0,0,1.52,2l.26,0,.26,0,8.9-1.27-.51-3.56Z"/><path class="cls-1" d="M92.07,15.76a1.78,1.78,0,0,0-1.53-.51l-8.9,1.27.51,3.56,3.56-.51L75.54,29.74l2.54,2.54L88.25,22.11l-.51,3.55,3.56.51,1.27-8.9A1.8,1.8,0,0,0,92.07,15.76Z"/><rect class="cls-1" x="33.07" y="71.16" width="3.6" height="3.6" transform="translate(-41.38 46.02) rotate(-45)"/><rect class="cls-1" x="71.2" y="33.02" width="3.6" height="3.6" transform="translate(-3.24 61.82) rotate(-45)"/></g></g></svg>