<svg xmlns="http://www.w3.org/2000/svg" viewBox="0 0 107.87 107.87"><defs><style>.cls-1{fill:#fff;}</style></defs><title>Asset 4</title><g id="Layer_2" data-name="Layer 2"><g id="Layer_1-2" data-name="Layer 1"><g id="_2" data-name="2"><path class="cls-1" d="M43,60,26.89,76.06,27,67.42a3.37,3.37,0,1,0-6.74,0V84.27a3,3,0,0,0,1.07,2.36,3.35,3.35,0,0,0,2.4,1H40.45a3.37,3.37,0,0,0,0-6.74H31.59L47.76,64.72ZM40.45,27a3.37,3.37,0,1,0,0-6.74H23.69a3.36,3.36,0,0,0-2.4,1,3,3,0,0,0-1.07,2.36V40.45a3.37,3.37,0,1,0,6.74,0l-.07-8.65L43,47.91l4.77-4.77L31.59,27ZM84.27,64a3.37,3.37,0,0,0-3.37,3.37L81,76.07,64.87,60,60.1,64.73,76.28,80.9H67.42a3.37,3.37,0,0,0,0,6.74H84.18a3.34,3.34,0,0,0,2.4-1,3,3,0,0,0,1.07-2.36V67.42A3.37,3.37,0,0,0,84.27,64Zm-.09-43.82H67.42a3.37,3.37,0,1,0,0,6.74h8.86L60.1,43.14l4.77,4.77L81,31.8l-.07,8.65a3.37,3.37,0,0,0,6.74,0V23.6a3,3,0,0,0-1.07-2.36A3.36,3.36,0,0,0,84.18,20.22ZM94.38,0H13.48A13.48,13.48,0,0,0,0,13.48v80.9a13.48,13.48,0,0,0,13.48,13.48h80.9a13.48,13.48,0,0,0,13.48-13.48V13.48A13.48,13.48,0,0,0,94.38,0Zm6.74,94.38a6.74,6.74,0,0,1-6.74,6.74H13.48a6.74,6.74,0,0,1-6.74-6.74V13.48a6.74,6.74,0,0,1,6.74-6.74h80.9a6.74,6.74,0,0,1,6.74,6.74Z"/></g></g></g></svg>