<svg xmlns="http://www.w3.org/2000/svg" viewBox="0 0 107.87 107.87"><defs><style>.cls-1{fill:#fff;}</style></defs><title>Asset 3</title><g id="Layer_2" data-name="Layer 2"><g id="Layer_1-2" data-name="Layer 1"><g id="_Group_" data-name="&lt;Group&gt;"><g id="_Group_2" data-name="&lt;Group&gt;"><path id="_Compound_Path_" data-name="&lt;Compound Path&gt;" class="cls-1" d="M19.5,39A19.5,19.5,0,1,0,0,19.5,19.52,19.52,0,0,0,19.5,39Zm0-34.78A15.28,15.28,0,1,1,4.21,19.5,15.3,15.3,0,0,1,19.5,4.21Z"/><path id="_Path_" data-name="&lt;Path&gt;" class="cls-1" d="M21.17,24.13a2.11,2.11,0,1,0,3-3l-2.53-2.52V9.27a2.11,2.11,0,0,0-4.21,0V19.5A2.11,2.11,0,0,0,18,21Z"/><path id="_Compound_Path_2" data-name="&lt;Compound Path&gt;" class="cls-1" d="M105.76,69.94h-13a12.44,12.44,0,0,0-7.51-5l-9.26-2a14.21,14.21,0,0,0,6.29-11.8V43.06a14.22,14.22,0,1,0-28.44,0v8.06a14.21,14.21,0,0,0,6.27,11.79l-9.26,2c-.4.09-.78.19-1.17.32V47.82a2.11,2.11,0,0,0-2.11-2.11H33.29a2.11,2.11,0,0,0,0,4.21H45.51V79.42H31.18V68.89a6.32,6.32,0,0,0-12.64,0V79.42H4.21V49.93H16.43a2.11,2.11,0,0,0,0-4.21H2.11A2.11,2.11,0,0,0,0,47.82V81.53a2.11,2.11,0,0,0,2.11,2.11H18.54v4h-.21a6.54,6.54,0,0,0-6.53,6.53v1.05H2.11A2.11,2.11,0,0,0,0,97.33v8.43a2.11,2.11,0,0,0,2.11,2.11H105.76a2.11,2.11,0,0,0,2.11-2.11V72.05A2.11,2.11,0,0,0,105.76,69.94ZM92.95,95.22h-12V91h22.75v4.21Zm10.71-8.43H80.9V82.58h22.75Zm0-8.43H80.9V74.16h22.75ZM58.08,43.07a10,10,0,0,1,20-.78l-4.9-2.88a2.11,2.11,0,0,0-2.68.46,11.17,11.17,0,0,1-8.58,4H58.08v-.81Zm0,5H61.9a15.37,15.37,0,0,0,10.58-4.2l5.62,3.3v3.94a10,10,0,0,1-20,0v-3ZM71.39,65l-3.33,8.91-3.34-8.93a14.14,14.14,0,0,0,6.67,0ZM47.61,83.64a2.11,2.11,0,0,0,2.11-2.11V69.81a8.19,8.19,0,0,1,2.07-.76L61,67l5.08,13.58a2.11,2.11,0,0,0,3.95,0L75.11,67l9.27,2a8.2,8.2,0,0,1,2.3.88H78.79a2.11,2.11,0,0,0-2.11,2.11V95.22H45.33V83.64h2.28Zm-6.49,0V95.22h-3.2V94.17a6.54,6.54,0,0,0-6.53-6.53h-.21v-4ZM22.75,68.89a2.11,2.11,0,0,1,4.21,0V87.64H22.75ZM16,94.17a2.32,2.32,0,0,1,2.32-2.32H31.39a2.32,2.32,0,0,1,2.32,2.32v1.05H16Zm87.64,9.48H4.21V99.44h99.44Z"/><path id="_Path_2" data-name="&lt;Path&gt;" class="cls-1" d="M23.37,46.33a2.11,2.11,0,1,0,1.49-.62A2.12,2.12,0,0,0,23.37,46.33Z"/></g></g></g></g></svg>