<?xml version="1.0" encoding="utf-8"?>
<!-- Generator: Adobe Illustrator 21.0.0, SVG Export Plug-In . SVG Version: 6.00 Build 0)  -->
<svg version="1.0" id="Capa_1" xmlns="http://www.w3.org/2000/svg" xmlns:xlink="http://www.w3.org/1999/xlink" x="0px" y="0px"
	 viewBox="0 0 201.4 201.4" style="enable-background:new 0 0 201.4 201.4;" xml:space="preserve">
<style type="text/css">
	.st0{fill:#FFFFFF;}
</style>
<g>
	<g>
		<g>
			<path class="st0" d="M127.7,29.3c-1.9-13.4-13.5-23.4-27-23.4c-8.7,0-16.9,4.2-22.1,11.2c-1,1.4-0.7,3.4,0.7,4.5
				c1.4,1,3.4,0.7,4.5-0.7c3.9-5.4,10.2-8.6,16.9-8.6c10.3,0,19.2,7.7,20.7,17.9c0.2,1.6,1.6,2.8,3.2,2.8c0.1,0,0.3,0,0.5,0
				C126.8,32.7,128,31.1,127.7,29.3z"/>
		</g>
	</g>
	<g>
		<g>
			<path class="st0" d="M174.2,65.3l-9.6-16.1c-0.6-1-1.6-1.6-2.8-1.6h-9.2c-1.8,0-3.2,1.4-3.2,3.2s1.4,3.2,3.2,3.2h7.4l5.8,9.6
				H35.7l5.8-9.6h3.4c1.8,0,3.2-1.4,3.2-3.2s-1.4-3.2-3.2-3.2h-5.2c-1.1,0-2.2,0.6-2.8,1.6l-9.6,16.1c-0.6,1-0.6,2.2,0,3.2
				c0.6,1,1.6,1.6,2.8,1.6h141.4c1.2,0,2.2-0.6,2.8-1.6C174.8,67.5,174.8,66.3,174.2,65.3z"/>
		</g>
	</g>
	<g>
		<g>
			<path class="st0" d="M158.1,35.7c-0.5-0.7-1.2-1.2-2-1.4L112.3,24c-0.8-0.2-1.7,0-2.4,0.4c-0.7,0.5-1.2,1.2-1.4,2l-3.3,14.1
				c-0.4,1.7,0.7,3.5,2.4,3.9c1.7,0.4,3.5-0.7,3.9-2.4l2.6-11l37.6,8.8L145.6,65c-0.4,1.7,0.7,3.5,2.4,3.9c0.2,0.1,0.5,0.1,0.7,0.1
				c1.5,0,2.8-1,3.1-2.5l6.6-28.4C158.7,37.3,158.6,36.4,158.1,35.7z"/>
		</g>
	</g>
	<g>
		<g>
			<path class="st0" d="M102.4,43.3l-2.9-24.8c-0.1-0.8-0.5-1.6-1.2-2.1c-0.7-0.5-1.5-0.8-2.4-0.7L42.1,22c-1.8,0.2-3,1.8-2.8,3.6
				l4.9,41.3c0.2,1.6,1.6,2.8,3.2,2.8c0.1,0,0.3,0,0.4,0c1.8-0.2,3-1.8,2.8-3.6L46.1,28l47.4-5.6L96,44c0.2,1.8,1.8,3,3.6,2.8
				C101.3,46.6,102.6,45,102.4,43.3z"/>
		</g>
	</g>
	<g>
		<g>
			<path class="st0" d="M127.8,65.7l-6.4-26.5c-0.2-0.8-0.7-1.5-1.4-2c-0.7-0.4-1.6-0.6-2.4-0.4L65.8,49.3c-1.7,0.4-2.8,2.2-2.4,3.9
				l3.2,13.3c0.4,1.7,2.2,2.8,3.9,2.4c1.7-0.4,2.8-2.2,2.4-3.9l-2.4-10.1l45.5-10.9l5.6,23.4c0.4,1.5,1.7,2.5,3.1,2.5
				c0.2,0,0.5,0,0.8-0.1C127.2,69.2,128.2,67.5,127.8,65.7z"/>
		</g>
	</g>
	<g>
		<g>
			<path class="st0" d="M174.6,66.8c-0.1-1.7-1.5-3-3.2-3H30c-1.7,0-3.1,1.3-3.2,3l-6.4,125.3c0,0.9,0.3,1.7,0.9,2.4
				c0.6,0.6,1.4,1,2.3,1h154.3c0.9,0,1.7-0.4,2.3-1c0.6-0.6,0.9-1.5,0.9-2.4L174.6,66.8z M26.9,189.1L33,70.2h135.3l6.1,118.9H26.9z
				"/>
		</g>
	</g>
	<g>
		<g>
			<path class="st0" d="M124.8,76.6c-5.3,0-9.6,4.3-9.6,9.6s4.3,9.6,9.6,9.6c5.3,0,9.6-4.3,9.6-9.6
				C134.4,80.9,130.1,76.6,124.8,76.6z M124.8,89.4c-1.8,0-3.2-1.4-3.2-3.2s1.4-3.2,3.2-3.2c1.8,0,3.2,1.4,3.2,3.2
				S126.6,89.4,124.8,89.4z"/>
		</g>
	</g>
	<g>
		<g>
			<path class="st0" d="M76.6,76.6c-5.3,0-9.6,4.3-9.6,9.6s4.3,9.6,9.6,9.6c5.3,0,9.6-4.3,9.6-9.6C86.2,80.9,81.9,76.6,76.6,76.6z
				 M76.6,89.4c-1.8,0-3.2-1.4-3.2-3.2s1.4-3.2,3.2-3.2s3.2,1.4,3.2,3.2S78.4,89.4,76.6,89.4z"/>
		</g>
	</g>
	<g>
		<g>
			<path class="st0" d="M124.8,86.2h-0.2c-1.8,0-3.2,1.4-3.2,3.2c0,0.4,0.1,0.9,0.2,1.2v16.4c0,11.5-9.4,20.9-20.9,20.9
				s-20.9-9.4-20.9-20.9V89.4c0-1.8-1.4-3.2-3.2-3.2c-1.8,0-3.2,1.4-3.2,3.2v17.7c0,15.1,12.3,27.3,27.3,27.3s27.3-12.3,27.3-27.3
				V89.4C128,87.7,126.6,86.2,124.8,86.2z"/>
		</g>
	</g>
</g>
</svg>
