<svg xmlns="http://www.w3.org/2000/svg" viewBox="0 0 119.02 107.87"><defs><style>.cls-1{fill:#fff;}</style></defs><title>Asset 5</title><g id="Layer_2" data-name="Layer 2"><g id="Layer_1-2" data-name="Layer 1"><path class="cls-1" d="M14.91,0C21,0,27.17,0,33.31,0q0,7.44,0,14.89c14.91,0,29.82,0,44.73,0,0,11.1,0,22.21,0,33.31H74.54q0-7.46,0-14.91H33.31q0,37.27,0,74.53c-6.13,0-12.27,0-18.4,0q0-37.27,0-74.53H0V14.92H14.9C14.91,9.95,14.9,5,14.91,0ZM18.4,3.51c0,3.8,0,7.61,0,11.41H29.81q0-5.7,0-11.41C26,3.54,22.2,3.49,18.4,3.51ZM3.49,18.41c0,3.8,0,7.61,0,11.41H14.91q0-5.71,0-11.41C11.1,18.44,7.3,18.4,3.49,18.41Zm14.91,0q0,5.7,0,11.41H29.81c0-3.8,0-7.61,0-11.41Zm14.91,0c0,3.81,0,7.62,0,11.42,3.79,0,7.59,0,11.38,0,0-3.81,0-7.61,0-11.41C40.91,18.42,37.11,18.4,33.32,18.42Zm29.83,0c0,3.81,0,7.61,0,11.42,3.8,0,7.59,0,11.39,0,0-3.8,0-7.61,0-11.41C70.74,18.4,66.94,18.43,63.14,18.4Zm-14.93,0c0,3.8,0,7.61,0,11.41H59.63c0-3.8,0-7.61,0-11.41ZM18.41,33.33c0,3.8,0,7.6,0,11.4,3.8,0,7.61,0,11.41,0,0-3.8,0-7.59,0-11.39C26,33.29,22.21,33.33,18.41,33.33Zm0,14.9c0,3.81,0,7.61,0,11.41,3.81,0,7.61,0,11.42,0,0-3.8,0-7.6,0-11.4Zm0,14.91q0,5.7,0,11.41c3.81,0,7.62.06,11.43,0-.05-3.79,0-7.58,0-11.37Q24.1,63.12,18.4,63.14ZM18.4,78q0,5.71,0,11.41H29.81q0-5.7,0-11.41Zm0,14.91c0,3.8,0,7.61,0,11.41,3.8,0,7.61,0,11.41,0q0-5.7,0-11.4Z"/><path class="cls-1" d="M22.36,22.37h3.71c0,1.17,0,2.34,0,3.51-1.24,0-2.49,0-3.73,0C22.36,24.7,22.36,23.54,22.36,22.37Z"/><path class="cls-1" d="M52.18,22.38c1.24,0,2.49,0,3.73,0,0,1.16,0,2.32,0,3.48H52.18C52.16,24.7,52.18,23.54,52.18,22.38Z"/><path class="cls-1" d="M87.58,38.92c1.16,0,2.33,0,3.49,0q0,3.84,0,7.68h4c0-2.56,0-5.12,0-7.68,1.16,0,2.33,0,3.5,0,0,2.56,0,5.12,0,7.68h4c0-2.56,0-5.12,0-7.68H106c0,2.56,0,5.12,0,7.69h3.95c0-2.56,0-5.12,0-7.68h3.48q0,29,0,58H119v10.95H85.72q0-1.75,0-3.49c3.73,0,7.45,0,11.18,0,0-2.48,0-5,0-7.45,4.34,0,8.69,0,13,0,0-8.15,0-16.3,0-24.46-5,0-9.95,0-14.92,0,.06-5,0-9.92,0-14.87-7.53,0-15.06,0-22.59,0q0,14,0,27.95H68.94c0-10.48,0-21,0-31.44q9.31,0,18.63,0,0-2,0-4c-1.86,0-3.72,0-5.58,0V46.6h5.58Q87.59,42.75,87.58,38.92Zm3.5,11.17q0,2,0,4c1.32,0,2.64,0,4,0,0-1.31,0-2.62,0-3.93C93.72,50.07,92.4,50.1,91.07,50.09Zm7.45,0c0,2.55,0,5.1,0,7.65,1.32.06,2.65,0,4,0,0-2.56,0-5.12,0-7.68Zm7.46,0c0,2.53,0,5.07,0,7.6,1.26.19,2.64,0,3.95.08,0-2.56,0-5.12,0-7.69C108.62,50.08,107.3,50.1,106,50.1ZM98.53,61.27c0,2.53,0,5.06,0,7.59a33.56,33.56,0,0,0,3.95.09c0-2.56,0-5.12,0-7.69Zm7.46,0q0,3.84,0,7.67h4c0-2.56,0-5.12,0-7.68Zm-5.59,39.13q0,2,0,4c5,0,10.09,0,15.13,0,0-1.32,0-2.64,0-4Z"/><path class="cls-1" d="M22.36,52.19h3.73c0,1.16,0,2.32,0,3.47-1.24,0-2.49,0-3.73,0C22.36,54.52,22.36,53.35,22.36,52.19Z"/><path class="cls-1" d="M78.27,61.51c3.65,0,7.3,0,10.95,0,0,3.65,0,7.29,0,10.94-3.65,0-7.3,0-10.95,0C78.27,68.79,78.26,65.15,78.27,61.51ZM81.76,65c0,1.32,0,2.63,0,3.95,1.32,0,2.64,0,4,0,0-1.31,0-2.62,0-3.93C84.41,65,83.08,65,81.76,65Z"/><path class="cls-1" d="M93.17,76.41c3.65,0,7.29,0,10.94,0,0,3.65,0,7.3,0,10.95H93.17C93.15,83.71,93.18,80.06,93.17,76.41Zm3.5,3.5c0,1.32,0,2.64,0,4h4c0-1.32,0-2.64,0-4Z"/><path class="cls-1" d="M78.26,76.4l11,0q0,5.47,0,10.94H78.27Q78.26,81.88,78.26,76.4Zm3.5,3.51c0,1.32,0,2.64,0,4h4c0-1.33,0-2.65,0-4C84.38,79.92,83.07,79.89,81.76,79.91Z"/><path class="cls-1" d="M22.36,82h3.72c0,1.16,0,2.33,0,3.49H22.36C22.36,84.33,22.36,83.17,22.36,82Z"/><path class="cls-1" d="M50.31,96.91c0-2.49,0-5,0-7.47,7.36,0,14.71,0,22.07,0,.06,2.49,0,5,0,7.47,3.11,0,6.22,0,9.32,0,0,3.64,0,7.29,0,10.93q-20.38,0-40.77,0c0-3.65,0-7.29,0-10.94C44.1,96.9,47.2,96.91,50.31,96.91Zm3.5,0c5,0,10.09,0,15.14,0,0-1.33,0-2.65,0-4q-7.54,0-15.08,0C53.76,94.25,53.83,95.58,53.81,96.91Zm-9.32,3.51c0,1.31,0,2.63,0,3.94H59.63q0-2,0-4C54.58,100.41,49.53,100.38,44.48,100.42Zm18.64,0q0,2,0,4H78.26c0-1.31,0-2.62,0-3.93C73.23,100.36,68.17,100.42,63.12,100.4Z"/></g></g></svg>