<svg xmlns="http://www.w3.org/2000/svg" viewBox="0 0 123.54 107.87"><defs><style>.cls-1{fill:#fff;}</style></defs><title>Asset 6</title><g id="Layer_2" data-name="Layer 2"><g id="Layer_1-2" data-name="Layer 1"><path class="cls-1" d="M87.77,58.74H71a8.34,8.34,0,0,0-8.33,8.33V79.95A8.34,8.34,0,0,0,71,88.28H87.77a8.34,8.34,0,0,0,8.33-8.33V67.07A8.34,8.34,0,0,0,87.77,58.74ZM90,79.95a2.28,2.28,0,0,1-2.27,2.27H71a2.28,2.28,0,0,1-2.27-2.27V67.07A2.28,2.28,0,0,1,71,64.8H87.77A2.28,2.28,0,0,1,90,67.07Z"/><path class="cls-1" d="M123.54,35.34a2.81,2.81,0,0,0-.4-1.49L104.76,1.54A3,3,0,0,0,102.13,0H21.38a3,3,0,0,0-2.63,1.54L.4,33.85A3.06,3.06,0,0,0,0,35.34,17.72,17.72,0,0,0,10.6,51.55v53.29a3,3,0,0,0,3,3h96.25a3,3,0,0,0,3-3V51.93a1.33,1.33,0,0,0,0-.33A17.77,17.77,0,0,0,123.54,35.34ZM23.15,6.08h77.22l14.36,25.27H8.81Zm64.77,31.3a11.64,11.64,0,0,1-22.92,0Zm-29.36,0a11.66,11.66,0,0,1-22.95,0Zm-52.3,0H29.21a11.66,11.66,0,0,1-22.95,0Zm44.63,64.42H33.47V69.12a4.31,4.31,0,0,1,4.32-4.32H46.6a4.31,4.31,0,0,1,4.32,4.32v32.69Zm56,0H56.95V69.12A10.39,10.39,0,0,0,46.57,58.74H37.76A10.39,10.39,0,0,0,27.39,69.12v32.72H16.66V53c.35,0,.71,0,1.06,0a17.7,17.7,0,0,0,14.69-7.83,17.7,17.7,0,0,0,29.38,0,17.66,17.66,0,0,0,29.33,0,17.7,17.7,0,0,0,14.69,7.83l1,0v48.77Zm-1-54.8a11.64,11.64,0,0,1-11.46-9.59h22.95A11.71,11.71,0,0,1,105.82,47Z"/></g></g></svg>